<?xml version="1.0" encoding="utf-8"?>
<!-- Generator: Adobe Illustrator 26.0.3, SVG Export Plug-In . SVG Version: 6.00 Build 0)  -->
<svg version="1.1" id="圖層_1" xmlns="http://www.w3.org/2000/svg" xmlns:xlink="http://www.w3.org/1999/xlink" x="0px" y="0px"
	 viewBox="0 0 640 320" style="enable-background:new 0 0 640 320;" xml:space="preserve">
<style type="text/css">
	.st0{fill:#FFA5DB;stroke:#F9ED7C;stroke-width:5;stroke-miterlimit:10;}
</style>
<g>
	<path class="st0" d="M153.3,76.5c3.1,0.5,5.4,1.4,6.7,2.9c1.5,1.9,2.1,4,1.7,6.7c-0.2,1.2-0.4,2.4-0.5,3.6
		c16.9,2.3,33.8,4.3,50.7,5.9c5.2,0.5,7.5,3.2,7,8.3c-0.5,5.5-3.3,8.1-8.6,7.5c-15.3-1.4-30.5-3.2-45.8-5.3c1.8,0.9,2.4,3.1,2.1,6.6
		c-0.2,1.1-0.3,2.2-0.5,3.3c13.9,1.9,27.9,3.4,41.8,4.8c2.5,0.3,4.2,0.9,5.3,2.1c1.1,1,1.6,2.8,1.3,5.5c-0.2,2.3-0.8,4-2,5.2
		c-1.5,1.4-3.5,2-6,1.7c-13.4-1.3-26.8-2.8-40.2-4.5c0.8,2.9,2,5.4,3.5,7.4c2.4,3.3,7,7,13.8,10.7c0-0.1,0-0.1,0-0.2
		c2.7-1.9,5-3.7,6.7-5.2c2.1-2,3.3-3.2,3.8-3.8c1.5-1.8,3.2-2.6,4.9-2.4c2,0.2,3.9,0.9,5.6,2.3c2.3,1.6,3.4,3.5,3.2,5.5
		c-0.1,0.9-0.7,1.9-1.6,3c-2.1,2-4.6,4.3-7.8,6.9c-0.4,0.3-0.8,0.6-1,0.8c3.9,1.6,8.1,3.2,12.5,4.9c3,1.5,4.4,3.5,4.1,5.9
		c-0.5,3-1.6,5-3.4,6.1c-2.2,1.5-4.6,2.2-7.2,2c-2.5-0.3-5-0.8-7.4-1.8c-0.8,8.2-1.7,16.4-2.4,24.6c-0.8,8.2-5.9,11.7-15.4,10.7
		c-7.7-0.8-15.5-1.8-23.2-2.8c-1,7.5-2,15.1-3,22.6c-1.1,7.6-10.1,10.5-27,8.3c-2.2-0.3-4.1-0.8-6.1-1.3c-2.1-0.4-3.7-1-4.8-2
		c-1.5-0.9-2.5-2.2-3.1-3.7c-0.6-1.5-0.8-2.7-0.6-3.8c0.5-2.8,2.1-4.6,4.9-5.4c3-1,8.1-0.9,15.4,0.1c1.6,0.2,2.4-0.4,2.6-1.9
		c0.8-5.3,1.5-10.5,2.3-15.8c-9.3-1.4-18.5-2.8-27.7-4.4s-13.2-6.5-11.7-14.6c1.5-8.1,2.9-16.3,4.4-24.3c-3.2,0.1-6-0.1-8.4-0.5
		c-2.9-0.8-5.2-2.3-6.7-4.6c-0.3-0.6-0.5-0.9-0.5-1.3c-6.6,25.9-16.5,46.5-30.2,61.5c-1.2,1.9-2.5,3.3-3.9,4.3c-2,1.7-5,2.2-8.9,1.4
		c-3.3-0.8-5.8-2-7.6-3.9c-1.6-1.9-2.2-4.1-1.5-6.8c0.3-1.3,2.1-3.9,5.4-7.4c10.2-11.2,17.7-22.3,22.4-33.4
		c-7.7,2.7-14.3,3.6-19.7,2.7c-3-0.8-5.1-2.4-6.2-5c-0.8-2.2-0.9-4.6-0.3-7.1c0.8-3.5,2.8-5.4,5.9-5.7c11.2-0.8,20.1-2.3,26.8-4.8
		c1-4.1,1.9-8.2,2.7-11.9c0.1-0.5,0.2-1,0.3-1.5c-0.4,0.5-0.8,0.8-1.6,1.1c-1.9,1.1-4.3,1.4-7.2,0.8c-2.1-0.5-3.5-1-4.2-1.8
		c-0.8-0.7-1.3-1.6-1.7-2.8c-1-6.8-2.9-16.9-5.3-30.5c-0.2-0.9-0.1-2.1,0-3.4c0.2-0.9,0.7-1.9,1.4-2.8c1-1,2.4-1.8,4.4-2.2
		c1.4-0.2,2.8-0.1,4.2,0.3c2.1,0.8,3.8,2.1,5.3,4c1.7,3.1,3.5,9.6,5.5,19.6c0.7,3.3,1,6.4,1.1,9.1c2.6-12.6,5.4-25.2,8-37.7
		c1.8-8.5,7.2-11.7,16.4-9.9c14.8,2.9,29.7,5.6,44.6,8c0.2-1.2,0.4-2.3,0.6-3.6c0.4-2.3,1.6-4.2,3.8-5.9
		C147.3,76.3,149.7,76,153.3,76.5z M87.5,145.4c0.5-0.5,1-0.8,1.8-1c7.7-0.8,14.5-1.6,20.5-2.5c-2.9-2.6-5.6-5-8.2-7
		c-0.6-0.5-0.9-0.8-1.1-1.1c-0.8-1.2-1-2.7-0.7-4.5c0.3-1.5,1.6-2.8,3.9-4.2c2.2-1,4.1-1.3,6-1c0.8,0.2,2,0.7,3.3,1.6
		c6.9,5.5,11.7,9.6,14.6,12.3c0.7-0.1,1.1-0.2,1.4-0.3c6.5-2.1,11.3-5.5,14.5-10.1c-13.1-2-26-4.1-39.1-6.6
		c-2.3-0.5-3.9-1.3-5.1-2.7c-1-1.2-1.2-3.3-0.7-6.1c0.5-2.3,1.4-3.9,2.8-4.9c1.5-0.8,3.4-0.9,5.6-0.6c13.8,2.5,27.7,4.9,41.6,7
		c0.2-1.1,0.3-2.2,0.5-3.3c0.4-2.6,1.2-4.3,2.6-5.2c0.4-0.3,0.8-0.5,1-0.6c-17.3-2.5-34.5-5.5-51.7-8.7c-2.3-0.5-3.6,0.5-3.9,2.5
		c-2.7,14-5.5,28.1-8.3,42.1C88.3,142.2,88,143.9,87.5,145.4z M107.2,199.5c2.3,0.4,4.3,1.3,6.1,2.8c2.3,1.9,3.3,4,2.9,6.5
		c-0.2,1.4-1.1,2.6-2.8,3.9c-3.2,2.6-7.5,5.5-12.9,8.4c-4.8,2.5-8.6,4.4-11.6,5.5c-2.1,1-4.1,1.4-6.1,1.1c-3.2-0.6-5.6-2.1-7.5-4.4
		c-1.5-2.2-2-4.3-1.6-6.5c0.2-1,0.8-1.9,2-2.6c0.8-0.4,2.1-0.9,3.6-1.6c5.7-2.4,10.1-4.5,13.4-6.3c4.3-2.6,7-4.2,8.1-4.9
		C102.8,199.7,105,199.1,107.2,199.5z M117.9,168.3c19.8,3.3,39.8,6.1,59.7,8.5c0.3-2.1,0.5-4.1,0.8-6.2c0.2-1.2-0.6-2-2.3-2.2
		c-18.2-2.2-36.5-4.7-54.6-7.7c-1.5-0.3-2.3,0.3-2.5,1.5C118.6,164.2,118.2,166.2,117.9,168.3z M172.8,195.8c1.7,0.2,2.5-0.5,2.7-2
		c0.2-1.8,0.4-3.6,0.7-5.4c-20.1-2.3-40.2-5.2-60.2-8.6c-0.3,1.8-0.6,3.6-0.8,5.3c-0.3,1.5,0.4,2.3,1.9,2.6
		C135.6,191,154.2,193.7,172.8,195.8z M135.4,150.8c11,1.7,22,3.2,33,4.6c-4.1-3.2-8.3-6.9-12.5-10.9c-1-0.8-2-1.3-2.8-1.4
		c-0.7-0.1-1.5,0.1-2.7,0.5C145.5,146.4,140.4,148.8,135.4,150.8z M179.8,210.6c2.5,0.6,4.8,1.7,6.7,3.5c3.3,2.1,7.5,6.5,12.7,13.3
		c2.9,3.9,4.3,7.1,4,10c-0.2,2-0.9,3.4-2.3,4.3c-1.9,1.4-4.5,2-7.8,1.7c-2-0.2-3.5-0.7-4.5-1.5c-0.8-0.6-1.7-1.5-2.3-2.8
		c-3.3-4.4-8.8-11-16.5-19.7c-0.6-0.7-0.9-1.4-0.9-2.2c0.1-1,0.6-2.2,1.2-3.4c1-1.2,2.7-2.3,4.9-2.9
		C176.4,210.4,178.1,210.4,179.8,210.6z"/>
	<path class="st0" d="M310.4,139.6c-6.5,2.9-12.6,5.3-18.2,7c-5.3,1.6-9.1,2.3-11.5,2.3c-2.3-0.1-4.3-0.8-5.8-2
		c-0.2,5.6-0.4,11.3-0.7,16.9c-1.4,31.7-6.9,57.1-16.9,76.3c-0.8,2.1-2,3.7-3.2,4.9c-1.7,2-4.5,2.9-8.6,2.8c-3.3-0.2-6-1-8.1-2.5
		c-1.9-1.6-2.7-3.8-2.5-6.4c0.1-1.4,1.2-4,3.3-7.9c6.4-11.7,10.8-23,13.4-33.7c-5.5,2.9-10.6,4.3-15.1,4.3c-2.7-0.3-4.8-1.6-6.3-3.9
		c-1-1.8-1.5-3.9-1.4-6.5c0.3-3.6,2-5.7,5.3-6.6c8.1-2.4,14.9-5.3,20.6-8.3c0.4-4.6,0.7-9,0.8-13.3c0.1-1,0.1-2.1,0.2-3.1
		c-1.5,0.7-3.3,0.8-5.3,0.8s-3.4-0.5-4.2-1.1c-0.8-0.5-1.5-1.4-2.1-2.5c-2-6.2-5.2-15.5-9.4-27.8c-0.3-0.9-0.5-2.1-0.5-3.5
		c0.1-0.8,0.4-1.8,0.9-2.9c0.8-1.2,2.2-2.2,3.9-2.8c1.3-0.4,2.7-0.5,4.1-0.4c2.2,0.4,4,1.4,5.7,3.1c1.9,2.5,4.4,8.2,7.6,16.9
		c0.5-9.7,1-19.4,1.5-29c0.5-8.7,5.5-12.9,14.9-12.5c17.4,0.7,34.8,0.9,52.2,0.8c0-0.9,0-1.9,0-2.7c0-2.3,0.8-4.4,2.5-6.4
		c1.3-1.1,3.6-1.8,7-1.8c3.4-0.1,5.7,0.5,7,1.6c2,1.4,3.1,3.6,3.1,6.3c0,0.9,0,1.9,0.1,2.7c16-0.4,32-1.1,47.9-2.2
		c4.7-0.3,7.2,2.1,7.6,7.1s-1.8,7.9-6.6,8.2c-15.6,1-31.3,1.8-47,2.2c2,0.8,3.9,1.9,6,2.9c13.8,6.8,29.1,12.9,46,18.1
		c2.6,1.1,4,2.7,4.2,5.1c0.1,1.7-0.3,3.3-1.3,4.6c-1.3,1.7-3.2,2.6-5.5,2.8c-2.9,0.2-5.8-0.2-8.6-1c-6.5-2.2-13.7-4.8-21.5-8.1
		c0,0.2,0,0.4,0,0.5c0.1,1.4-0.2,2.4-0.8,3.1c-0.8,1.2-2.2,1.8-3.9,1.9c-15.4,0.6-30.8,0.8-46.2,0.8c-1.9,0-3.2-0.4-4-1.2
		c-0.8-0.7-1.1-1.9-1-3.7C310.4,139.9,310.4,139.8,310.4,139.6z M328.1,114.5c-16.1,0.2-32.1-0.1-48.2-0.6c-2.5-0.1-3.8,0.8-3.9,2.8
		c-0.3,7-0.5,14.1-0.8,21.1c0.7-0.5,1.2-0.8,1.7-0.9c11.7-3.8,28.1-10.6,48.7-21.1C326.5,115.2,327.3,114.7,328.1,114.5z
		 M288.9,210.3c3,0.1,5.5,0.6,7.5,1.5c2.3,1.4,3.5,3.5,3.4,6.3c-0.2,1.5-0.7,3.5-1.4,5.8c-3.3,8.9-5.8,15-7.6,18.2
		c-2.3,3.1-5,4.6-8.1,4.5c-2.3-0.1-4.7-0.8-7-2.1c-2.3-1.2-3.3-3.2-3.2-5.8c0-0.9,0.5-2.3,1.3-3.9c3.3-6.2,6.2-13.2,8.9-20.7
		c0.6-1.2,1.3-2.3,2.4-2.9C286.1,210.6,287.3,210.2,288.9,210.3z M336,149.4c7-0.1,10.5,2.5,10.7,8.1c0.3,13.2,0.7,26.4,0.9,39.6
		c0.1,3.8-0.8,6.5-2.9,8c-0.7,0.6-1.5,1-2.4,1.2c7.3,4.3,12.1,7.3,14.4,9c1,1.3,1.7,2.8,1.7,4.2c0.1,1.9-0.8,3.7-2.5,5.5
		c-1.8,2-3.9,3.1-6.6,3.1c-1.3,0-2.4-0.3-3.4-0.9c-6.3-4.5-11.9-8.4-17-11.7c-0.6-0.4-0.9-0.7-1.2-1c-0.9-0.9-1.4-2.3-1.4-3.9
		c0-1.1,0.4-2.2,1.1-2.9c-1.8,0-3.4,0-4.6-0.2c-2.5-0.2-4.6-0.8-6.2-1.9c-1.3-1.1-1.9-2.5-1.9-4.1c0-0.9,0.2-1.7,0.6-2.4
		c0.5-1,1.6-1.9,3.3-2.4c1.7-0.4,3.7-0.6,5.9-0.6c1.5,0,3.1,0,4.6,0c1,0,1.5-0.3,1.5-0.8c0-1.3,0-2.6,0-3.9
		c-10.6,0.1-21.2,0.1-31.9-0.1c-0.1,3.4-0.1,6.8-0.2,10.2c-0.1,4.1-2.9,6.2-8.6,6.1c-5.8-0.1-8.6-2.3-8.6-6.5
		c0.5-14.9,0.8-30,1.3-44.9c0.1-4.6,3.7-6.8,10.7-6.7C307.6,149.6,321.8,149.6,336,149.4z M299,166.2c10.4,0.2,20.8,0.2,31.2,0.1
		c0-1.6,0-3.2-0.1-4.9c0-0.5-0.3-0.7-0.8-0.7c-9.9,0.1-19.7,0.1-29.5-0.1c-0.5,0-0.8,0.2-0.8,0.7C299,162.9,299,164.5,299,166.2z
		 M298.8,181.5c10.5,0.2,21.1,0.2,31.6,0.1c0-1.9,0-3.7-0.1-5.5c-10.5,0.1-21,0.1-31.5-0.1C298.8,177.7,298.8,179.6,298.8,181.5z
		 M312.8,209.7c6.9,0,10.2,2.5,10.2,7.6c0,4.1,0,8.3,0.1,12.5c0,3.2,2.1,4.9,6.1,5c9.8-0.1,19.6-0.3,29.4-0.7c2.7-0.2,4.4-1,4.9-2.6
		c0.8-1.3,1.2-3.3,1.1-5.9c0.5-3.8,3.3-5.6,8.4-5.9c3,0,5.4,0.5,7.1,1.4c2.6,1.4,4.1,3.4,4.2,6.2c0.3,4.6-0.9,9-3.5,13.2
		c-2.2,4.1-7.9,6.7-17.2,7.3c-13.8,0.5-27.6,0.8-41.5,0.8c-7-0.5-11.9-1.9-15.1-4.2c-2.6-1.9-3.9-5.1-3.9-9.7
		c0.1-5.8,0.1-11.7,0.2-17.5C303.5,212.2,306.6,209.7,312.8,209.7z M356.8,134.4c-3.1-1.3-6.1-2.6-9.2-4c-4.4-2.1-7.3-3.1-8.9-3.1
		c-1.8,0-3.4,0.4-4.7,1.1c-4.7,2.4-9.1,4.7-13.3,6.7C332.7,135,344.7,134.8,356.8,134.4z M360.4,153.1c2.3-0.1,4.1,0.4,5.5,1.5
		c1.4,1.1,2.2,2.8,2.3,5.1c0.4,9.2,0.8,18.4,1.1,27.6c0.1,1.7-0.4,3.2-1.3,4.4c-1,1.7-3.1,2.5-6,2.6c-2.4,0.1-4.3-0.7-5.8-2.3
		c-1.3-1.1-2-2.5-2.1-4.2c-0.3-9.2-0.6-18.4-0.8-27.6c-0.1-2.2,0.7-3.9,2.1-5.3C356.5,153.8,358.1,153.2,360.4,153.1z M386.2,148.3
		c5.3-0.3,8.1,1.6,8.5,5.7c0.9,14.1,1.9,28.2,2.7,42.3c0.2,3.4-0.9,6.1-3.5,8.4c-2.1,1.9-5.5,3.3-10.4,4.2c-3.1,0.2-5.6,0.2-7.8,0
		c-2.8,0-5-0.1-6.4-0.3c-2-0.8-3.3-2.5-3.9-5.2c-0.2-4.6,1.4-7.2,4.9-7.8c0.5,0,1,0,1.5-0.1c2.5,0.4,4.6,0.5,6.2,0.4
		c1.7-0.2,2.4-1,2.3-2.3c-0.7-12.9-1.3-25.7-2-38.7C378.3,151,380.8,148.8,386.2,148.3z M388,209.3c1.7-0.1,3.3,0,4.9,0.4
		c1.9,1.3,4.5,3.7,7.9,7.1c6.4,7.7,9.9,13.3,10.2,17.1c0.2,2-0.4,3.6-1.6,4.8c-1.5,1.1-3.8,1.8-6.7,2.1c-2.3,0.2-4.2-0.8-5.9-2.9
		c-4.2-6.2-9-12.1-14.3-17.9c-1.7-1.7-2.5-3-2.7-4.2c-0.1-2.2,0.9-3.9,3-5.2C384.4,209.8,386.1,209.5,388,209.3z"/>
	<path class="st0" d="M434.7,97.8c9.4-0.9,18.9-2.1,28.3-3.3c9-1.2,14.2,2.5,15.4,11.4c4.9,34.4,9.8,68.9,14.7,103.3
		c1.2,8.7-3.2,13.9-13.3,15.2c-10.5,1.3-21.1,2.5-31.6,3.7c-9.9,1-15.2-3-16-11.8c-3.2-34.6-6.4-69.3-9.6-103.8
		C422,103.6,425.9,98.8,434.7,97.8z M467.6,206.9c3.1-0.4,4.5-1.9,4.1-4.5c-3.6-28.2-7-56.4-10.6-84.6c-0.4-2.6-1.9-3.8-4.8-3.4
		c-3.4,0.4-6.7,0.8-10.1,1.1c-3,0.4-4.3,1.8-4,4.4c3.1,28.3,6.1,56.5,9.2,84.8c0.3,2.6,2.1,3.8,5.3,3.4
		C460.4,207.8,464,207.4,467.6,206.9z M500,83.5c20.3-3.3,40.5-7.2,60.6-11.7c8.3-1.9,13.4,1.2,15.3,9.3
		c4.2,18.2,8.5,36.5,12.7,54.8c1.8,7.5-2.1,12.4-11.5,14.5c-19.3,4.2-38.6,8-58.1,11.3c2.5,14.8,5,29.6,7.5,44.4
		c0.8,4.3,3.8,6.1,9.1,5.5c14.2-2.5,28.4-5.3,42.5-8.2c3.9-1.3,6-3.6,6.5-6.7c0.6-3.2,0.3-6.4-0.7-9.6c-0.4-3.1-1.2-7.6-2.5-13.4
		c-0.1-4.1,2.7-6.8,8.5-8.1c3.1-0.8,5.7-0.7,8,0.1c2.3,0.4,4.2,2.3,5.5,6c3.9,16.3,4.8,27.6,2.6,34.2c-1.6,6.7-8,11.5-19.2,14.2
		c-18.8,4-37.8,7.7-56.7,10.9c-7,0.9-12.8-0.3-17.1-3.7c-3-2.5-5.1-7.8-6.3-15.7c-5.7-37.9-11.6-75.8-17.3-113.7
		C488.2,89.6,491.7,84.9,500,83.5z M515.2,138.5c0.3,1.7,0.6,3.3,0.8,5c0.2,1.4,1.1,1.9,2.5,1.7c4.7-0.8,9.4-1.6,14.1-2.5
		c-2.8-15.4-5.6-30.8-8.5-46.2c-4.5,0.8-9,1.6-13.5,2.4c-1.4,0.3-2.1,1-1.8,2.4C510.9,113.6,513,126.1,515.2,138.5z M542.5,92.8
		c3.1,15.4,6.2,30.7,9.2,46.1c4.8-0.9,9.6-2,14.3-2.9c1.6-0.4,2.2-1.2,1.9-2.5c-3-14-6-27.9-9-41.9c-0.3-1.3-1.2-1.9-2.7-1.5
		C551.7,91,547.1,91.9,542.5,92.8z"/>
</g>
</svg>
